<?xml version="1.0" encoding="utf-8"?>
<!-- Uploaded to: SVG Repo, www.svgrepo.com, Generator: SVG Repo Mixer Tools -->
<!DOCTYPE svg PUBLIC "-//W3C//DTD SVG 1.1//EN" "http://www.w3.org/Graphics/SVG/1.1/DTD/svg11.dtd">
<svg fill="#000000" version="1.1" id="Layer_1" xmlns="http://www.w3.org/2000/svg" xmlns:xlink="http://www.w3.org/1999/xlink" 
	 width="800px" height="800px" viewBox="0 0 512 512" enable-background="new 0 0 512 512" xml:space="preserve">
<path d="M497.081,14.933c-1.515-1.495-3.75-1.912-5.703-1.048L26.753,221.692c-6.771,3.027-11.623,9.185-12.947,16.471
	c-1.355,7.286,0.978,14.769,6.206,20.006l100.095,100.095L392.792,111.76c1.009-0.93,2.585-0.89,3.563,0.088
	c0.979,0.974,1.009,2.553,0.096,3.584L149.978,388.117l12.693,98.073c0.412,3.29,2.492,6.141,5.482,7.553
	c3.027,1.425,8.979,0.101,11.059-2.492c11.658-14.422,32.234-42.187,32.234-42.187l42.376,42.906
	c5.259,5.237,12.725,7.562,20.006,6.215c7.307-1.342,13.452-6.185,16.475-12.944L498.12,20.622
	C499.002,18.692,498.563,16.429,497.081,14.933z"/>
</svg>