<?xml version="1.0" standalone="no"?>
<!DOCTYPE svg PUBLIC "-//W3C//DTD SVG 20010904//EN"
 "http://www.w3.org/TR/2001/REC-SVG-20010904/DTD/svg10.dtd">
<svg version="1.0" xmlns="http://www.w3.org/2000/svg"
 width="900.000000pt" height="549.000000pt" viewBox="0 0 900.000000 549.000000"
 preserveAspectRatio="xMidYMid meet">
<metadata>
Created by potrace 1.10, written by Peter Selinger 2001-2011
</metadata>
<g transform="translate(0.000000,549.000000) scale(0.100000,-0.100000)"
fill="#000000" stroke="none">
<path d="M1052 4538 c-7 -7 -12 -39 -12 -72 0 -34 -7 -110 -15 -171 -8 -60
-21 -182 -30 -270 -9 -88 -22 -216 -30 -285 -8 -69 -22 -197 -30 -285 -9 -88
-22 -210 -30 -270 -8 -61 -15 -131 -15 -156 0 -26 -5 -71 -10 -100 -17 -88
-30 -362 -18 -376 15 -18 538 -19 556 -1 7 7 12 37 12 69 0 31 5 81 11 110 5
30 14 99 19 154 14 168 30 326 42 415 6 47 12 112 14 145 2 33 10 119 18 190
8 72 19 172 25 223 5 52 15 100 22 108 16 19 531 21 547 1 7 -8 7 -37 2 -87
-25 -210 -33 -283 -40 -365 -8 -95 -22 -223 -46 -420 -8 -66 -14 -138 -14
-161 0 -22 -5 -65 -10 -95 -18 -96 -29 -273 -17 -287 7 -9 73 -12 286 -10
l276 3 16 105 c9 58 19 141 22 185 7 94 23 255 39 375 6 47 12 121 15 165 2
44 8 109 14 145 6 36 15 110 19 165 4 55 13 145 19 200 6 55 18 163 26 240 9
77 23 197 31 267 9 70 14 134 11 143 -6 13 -99 15 -860 15 -650 0 -856 -3
-865 -12z"/>
<path d="M2922 4538 c-5 -7 -13 -51 -16 -98 -3 -47 -13 -143 -21 -215 -15
-134 -34 -313 -60 -552 -8 -76 -19 -183 -26 -238 -6 -55 -15 -143 -19 -195 -4
-52 -13 -135 -19 -185 -42 -353 -52 -486 -39 -502 15 -19 1691 -19 1706 0 13
16 32 130 32 193 0 27 7 88 15 136 8 48 15 122 16 163 1 42 6 95 11 118 4 23
12 95 17 160 9 116 17 185 46 422 9 66 15 136 15 155 0 19 6 89 15 155 30 243
45 391 45 443 l0 52 -285 0 c-157 0 -285 -3 -286 -7 0 -5 -2 -17 -3 -28 -4
-26 -23 -194 -41 -365 -8 -74 -19 -180 -26 -235 -6 -55 -15 -140 -19 -190 -4
-49 -13 -135 -19 -190 -6 -55 -19 -163 -27 -240 -9 -77 -19 -147 -23 -155 -7
-13 -50 -15 -276 -18 -208 -2 -270 1 -277 10 -8 14 -3 90 13 172 5 27 9 76 9
110 1 33 5 81 10 106 5 25 12 81 15 125 3 44 12 136 20 205 31 267 36 319 45
427 5 62 15 142 21 178 6 36 9 72 5 80 -5 13 -46 15 -284 15 -212 0 -282 -3
-290 -12z"/>
<path d="M4786 4528 c-3 -13 -9 -66 -15 -118 -6 -52 -15 -140 -22 -195 -6 -55
-15 -140 -19 -190 -8 -95 -22 -223 -46 -420 -8 -66 -14 -138 -14 -161 0 -22
-4 -65 -10 -95 -5 -30 -14 -103 -19 -164 -11 -123 -24 -250 -47 -435 -9 -69
-14 -143 -12 -165 l3 -40 860 -5 860 -5 3 -945 c1 -551 6 -948 11 -953 12 -12
99 -13 111 -1 5 5 10 34 12 64 l3 55 50 3 c27 2 55 8 62 14 8 6 13 33 13 64
l0 54 58 0 c32 0 63 5 70 12 7 7 12 34 12 60 l0 48 60 0 59 0 3 -122 3 -123
57 -3 c69 -4 67 0 71 -152 l2 -105 55 -3 c37 -2 59 -8 68 -19 8 -11 12 -56 12
-135 l0 -118 60 0 59 0 7 -34 c3 -19 3 -39 0 -44 -3 -6 -3 -17 0 -26 5 -13 26
-16 135 -16 l129 0 0 60 0 59 63 3 62 3 0 130 0 130 -60 5 -60 5 -5 130 -5
130 -60 5 -60 5 -3 117 c-2 105 -5 119 -22 128 -11 6 -31 8 -44 4 -42 -10 -66
11 -66 59 0 24 5 48 12 55 9 9 79 12 253 12 174 0 244 3 253 12 7 7 12 33 12
58 0 25 -5 51 -12 58 -7 7 -35 12 -64 12 -59 0 -64 6 -64 76 0 51 -8 57 -79
58 l-46 1 -3 62 -3 62 -62 3 -62 3 -3 55 c-3 64 -18 80 -73 80 -46 0 -57 13
-61 75 l-3 50 -62 3 -63 3 0 59 0 59 -62 3 -63 3 -3 55 c-2 30 -7 59 -12 64
-5 5 -25 9 -45 8 -19 -1 -46 3 -60 8 -21 8 -24 16 -27 67 l-3 58 -57 3 -58 3
0 54 c0 32 -5 57 -12 62 -7 4 -38 10 -68 13 l-55 5 -5 60 -5 60 -60 5 -60 5 0
33 0 33 854 -1 c624 0 857 3 867 11 8 6 14 30 14 53 0 22 7 84 15 136 8 52 15
127 15 165 0 39 5 99 10 135 7 48 6 66 -3 72 -7 4 -258 8 -558 8 -425 0 -549
3 -557 13 -10 11 0 193 14 272 3 17 10 86 14 155 5 69 14 143 19 165 6 22 11
65 11 94 0 51 6 105 45 441 8 69 16 161 17 205 l3 80 -283 3 c-221 2 -283 0
-286 -10 -5 -18 -27 -206 -36 -308 -10 -110 -28 -272 -41 -380 -6 -47 -15
-128 -19 -180 -4 -52 -13 -140 -19 -195 -7 -55 -18 -162 -26 -237 -58 -547
-66 -614 -74 -627 -5 -8 -27 -11 -62 -9 l-54 3 -3 60 c-2 33 4 101 12 151 9
50 16 118 16 150 0 33 4 76 9 96 6 24 5 40 -2 47 -8 8 -180 11 -557 11 -426 0
-550 3 -564 13 -15 11 -16 20 -7 82 6 39 12 106 15 150 3 44 7 94 10 110 3 17
10 80 15 140 15 176 31 322 46 435 9 58 15 128 15 155 0 28 7 91 15 140 8 50
15 116 15 148 l0 57 -285 0 -285 0 -4 -22z m1774 -2253 c0 -50 3 -56 25 -65
14 -5 40 -9 58 -8 48 2 57 -7 57 -60 0 -26 4 -52 8 -59 4 -6 32 -13 62 -15
l55 -3 5 -60 5 -60 60 -5 60 -5 3 -55 c2 -30 9 -58 15 -62 7 -4 33 -8 59 -8
56 0 68 -15 68 -84 0 -30 4 -46 13 -47 6 0 32 -1 57 -2 l45 -2 5 -60 5 -60 60
-5 60 -5 3 -50 c4 -62 15 -75 64 -75 64 0 78 -13 78 -70 0 -39 -4 -51 -20 -60
-13 -7 -82 -11 -183 -10 -89 1 -168 1 -175 1 -10 -1 -12 -30 -10 -128 l3 -128
55 -5 55 -5 3 -114 c1 -63 7 -120 13 -127 6 -7 34 -14 62 -16 l52 -3 3 -114
c1 -63 7 -120 13 -127 6 -7 36 -14 67 -16 l57 -3 0 -125 0 -125 -127 -3 c-148
-3 -131 -20 -129 132 2 126 2 126 -70 126 l-59 0 0 124 c0 88 -4 127 -13 134
-7 6 -37 12 -67 14 l-55 3 -1 112 c-1 72 -6 118 -13 127 -8 9 -34 16 -64 18
l-52 3 -5 60 -5 60 -60 0 -60 0 -5 -60 -5 -60 -57 -5 c-31 -3 -60 -9 -65 -13
-4 -5 -10 -34 -13 -65 l-5 -57 -55 0 -55 0 -3 718 -2 717 60 0 60 0 0 -55z"/>
</g>
</svg>
